# xmcd CD database file
#
# Track frame offsets:
#	150
#	6672
#	24685
#	38642
#	53860
#	70025
#	85975
#	98595
#	116845
#	128450
#	142900
#	157290
#	170875
#
# Disc length: 2478 seconds
#
# Revision: 1
# Processed by: cddbd v1.5.1PL0 Copyright (c) Steve Scherf et al.
# Submitted via: CDex 1.51
#
DISCID=b009ac0d
DTITLE=GLENN MILLER - THE ORIGINAL  REUNION OF THE GLENN MILLER BAND
DYEAR=1988
DGENRE=Jazz
TTITLE0=MOONLIGHT SERENADE
TTITLE1=ANVIL CHORUS
TTITLE2=LITTLE BROWN JUG
TTITLE3=SONG OF THE VOLGA BOATMAN
TTITLE4=TUXEDO JUNCTION
TTITLE5=AMERICAN PATROL
TTITLE6=PERFIDIA
TTITLE7=GLENN MILLER MEDLEY
TTITLE8=THAT OLD BLACK MAGIC
TTITLE9=A STRING OF PEARLS
TTITLE10=PENSYLVANIA 6-5000
TTITLE11=TOO LITTLE TIME
TTITLE12=IN THE MOOD
EXTD=YEAR: 1988
EXTT0=
EXTT1=
EXTT2=
EXTT3=
EXTT4=
EXTT5=
EXTT6=
EXTT7=
EXTT8=
EXTT9=
EXTT10=
EXTT11=
EXTT12=
PLAYORDER=
